<?xml version="1.0" encoding="UTF-8"?>
<!DOCTYPE svg PUBLIC "-//W3C//DTD SVG 1.1//EN" "http://www.w3.org/Graphics/SVG/1.1/DTD/svg11.dtd">
<svg xmlns="http://www.w3.org/2000/svg" version="1.1" width="301px" height="301px" viewBox="-0.5 -0.5 301 301"
     style="background-color: rgb(255, 255, 255);"><defs/><g><path d="M 97.5 40 L 190.55 135.44" fill="none" stroke="rgb(0, 0, 0)" stroke-miterlimit="10" pointer-events="stroke"/><path d="M 194.22 139.2 L 186.83 136.63 L 190.55 135.44 L 191.84 131.74 Z" fill="rgb(0, 0, 0)" stroke="rgb(0, 0, 0)" stroke-miterlimit="10" pointer-events="all"/><rect x="20" y="220" width="240" height="80" fill="rgb(255, 255, 255)" stroke="rgb(0, 0, 0)" pointer-events="all"/><rect x="160" y="140" width="140" height="40" fill="#e1d5e7" stroke="#9673a6" pointer-events="all"/><g fill="rgb(0, 0, 0)" font-family="Helvetica" text-anchor="middle" font-size="12px"><text x="229.5" y="164.5">client</text></g><rect x="160" y="70" width="140" height="40" fill="#e1d5e7" stroke="#9673a6" pointer-events="all"/><g fill="rgb(0, 0, 0)" font-family="Helvetica" text-anchor="middle" font-size="12px"><text x="229.5" y="94.5">core</text></g><rect x="0" y="70" width="130" height="40" fill="#dae8fc" stroke="#6c8ebf" pointer-events="all"/><g fill="rgb(0, 0, 0)" font-family="Helvetica" text-anchor="middle" font-size="12px"><text x="64.5" y="94.5">segmentio</text></g><path d="M 65 40 L 65 63.63" fill="none" stroke="rgb(0, 0, 0)" stroke-miterlimit="10" pointer-events="stroke"/><path d="M 65 68.88 L 61.5 61.88 L 65 63.63 L 68.5 61.88 Z" fill="rgb(0, 0, 0)" stroke="rgb(0, 0, 0)" stroke-miterlimit="10" pointer-events="all"/><path d="M 65 110 L 153.93 138.08" fill="none" stroke="rgb(0, 0, 0)" stroke-miterlimit="10" pointer-events="stroke"/><path d="M 158.93 139.66 L 151.2 140.89 L 153.93 138.08 L 153.31 134.22 Z" fill="rgb(0, 0, 0)" stroke="rgb(0, 0, 0)" stroke-miterlimit="10" pointer-events="all"/><path d="M 230 110 L 230 133.63" fill="none" stroke="rgb(0, 0, 0)" stroke-miterlimit="10" pointer-events="stroke"/><path d="M 230 138.88 L 226.5 131.88 L 230 133.63 L 233.5 131.88 Z" fill="rgb(0, 0, 0)" stroke="rgb(0, 0, 0)" stroke-miterlimit="10" pointer-events="all"/><rect x="110" y="230" width="60" height="20" fill="none" stroke="none" pointer-events="all"/><g fill="rgb(0, 0, 0)" font-family="Helvetica" font-weight="bold" text-anchor="middle" font-size="12px"><text x="139.5" y="244.5">Legend</text></g><path d="M 30 270 L 93.63 270" fill="none" stroke="rgb(0, 0, 0)" stroke-miterlimit="10" pointer-events="stroke"/><path d="M 98.88 270 L 91.88 273.5 L 93.63 270 L 91.88 266.5 Z" fill="rgb(0, 0, 0)" stroke="rgb(0, 0, 0)" stroke-miterlimit="10" pointer-events="all"/><rect x="120" y="260" width="130" height="20" fill="none" stroke="none" pointer-events="all"/><g fill="rgb(0, 0, 0)" font-family="Helvetica" text-anchor="middle" font-size="12px"><text x="184.5" y="274.5">Required dependency</text></g><rect x="160" y="0" width="140" height="40" fill="#e1d5e7" stroke="#9673a6" pointer-events="all"/><g fill="rgb(0, 0, 0)" font-family="Helvetica" text-anchor="middle" font-size="12px"><text x="229.5" y="24.5">blue-green-kafka</text></g><rect x="0" y="0" width="130" height="40" fill="#dae8fc" stroke="#6c8ebf" pointer-events="all"/><g fill="rgb(0, 0, 0)" font-family="Helvetica" text-anchor="middle" font-size="12px"><text x="64.5" y="24.5">blue-green-segmentio</text></g><path d="M 130 20 L 153.63 20" fill="none" stroke="rgb(0, 0, 0)" stroke-miterlimit="10" pointer-events="stroke"/><path d="M 158.88 20 L 151.88 23.5 L 153.63 20 L 151.88 16.5 Z" fill="rgb(0, 0, 0)" stroke="rgb(0, 0, 0)" stroke-miterlimit="10" pointer-events="all"/></g></svg>